<svg fill="none" height="15" viewBox="0 0 15 15" width="15" xmlns="http://www.w3.org/2000/svg"><path clip-rule="evenodd" d="m14 4.21281-6.5-3.791667-6.5 3.791667v6.57439l1.00634.587 2.0563-.832c.56657-.2292.9374-.7793.9374-1.39049v-5.15171h1v5.15171c0 1.01869-.61804 1.93539-1.56232 2.31749l-1.33946.542 4.40174 2.5676 6.5-3.7916zm-7 1.78719c0-1.10457.89543-2 2-2h1.1667c1.0125 0 1.8333.82081 1.8333 1.83333v.16667h-1v-.16667c0-.46023-.3731-.83333-.8333-.83333h-1.1667c-.55228 0-1 .44772-1 1s.44772 1 1 1h1c1.1046 0 2 .89543 2 2 0 1.1046-.8954 2-2 2h-1c-1.10457 0-2-.8954-2-2h1c0 .55228.44772 1 1 1h1c.5523 0 1-.44772 1-1s-.4477-1-1-1h-1c-1.10457 0-2-.89543-2-2z" fill="#000" fill-rule="evenodd"/></svg>