<svg viewBox="0 0 24 24" xmlns="http://www.w3.org/2000/svg"><path d="m0 0h24v24h-24z" fill="none"/><path d="m12 13.5a1.5 1.5 0 1 1 0-3 1.5 1.5 0 0 1 0 3zm-.528 2.994c.175.21.351.414.528.609.177-.195.353-.398.528-.609a24.883 24.883 0 0 1 -1.056 0zm-1.995-.125a20.678 20.678 0 0 1 -2.285-.368c-.075.35-.132.69-.17 1.016-.19 1.583.075 2.545.478 2.777.403.233 1.368-.019 2.645-.974.263-.197.528-.416.794-.655a20.678 20.678 0 0 1 -1.462-1.796zm7.331-.368c-.717.16-1.483.284-2.285.368a20.678 20.678 0 0 1 -1.462 1.796c.266.24.531.458.794.655 1.277.955 2.242 1.207 2.645.974.403-.232.667-1.194.479-2.777a11.36 11.36 0 0 0 -.17-1.016zm1.45-.387c.577 2.639.274 4.74-1.008 5.48s-3.253-.048-5.25-1.867c-1.997 1.819-3.968 2.606-5.25 1.866s-1.585-2.84-1.009-5.48c-2.574-.819-4.241-2.133-4.241-3.613s1.667-2.793 4.241-3.614c-.576-2.639-.273-4.74 1.009-5.48s3.253.048 5.25 1.867c1.997-1.819 3.968-2.606 5.25-1.866s1.585 2.84 1.009 5.48c2.574.819 4.241 2.133 4.241 3.613s-1.667 2.793-4.241 3.614zm-7.32-9.779a11.36 11.36 0 0 0 -.793-.655c-1.277-.955-2.242-1.207-2.645-.974-.403.232-.667 1.194-.479 2.777.04.327.096.666.17 1.016a20.678 20.678 0 0 1 2.286-.368c.475-.653.965-1.254 1.462-1.796zm3.585 1.796c.802.084 1.568.209 2.285.368.075-.35.132-.69.17-1.016.19-1.583-.075-2.545-.478-2.777-.403-.233-1.368.019-2.645.974a11.36 11.36 0 0 0 -.794.655c.497.542.987 1.143 1.462 1.796zm-1.995-.125c-.175-.21-.351-.414-.528-.609-.177.195-.353.398-.528.609a24.884 24.884 0 0 1 1.056 0zm-4.156 7.198a24.884 24.884 0 0 1 -.528-.914c-.095.257-.183.51-.263.761.257.056.521.107.79.153zm1.932.234a22.897 22.897 0 0 0 3.392 0 22.897 22.897 0 0 0 1.696-2.938 22.897 22.897 0 0 0 -1.696-2.938 22.897 22.897 0 0 0 -3.392 0 22.897 22.897 0 0 0 -1.696 2.938 22.897 22.897 0 0 0 1.696 2.938zm5.852-4.728c.095-.257.183-.51.263-.761a17.974 17.974 0 0 0 -.79-.153 24.884 24.884 0 0 1 .527.914zm-10.026-.373c-.34.11-.662.23-.964.36-1.465.628-2.166 1.338-2.166 1.803s.7 1.175 2.166 1.803c.302.13.624.25.964.36.222-.7.497-1.426.825-2.163a20.678 20.678 0 0 1 -.825-2.163zm1.45-.388c.081.25.169.504.264.76a24.884 24.884 0 0 1 .528-.913c-.27.046-.534.097-.791.153zm10.29 4.714c.34-.11.662-.23.964-.36 1.465-.628 2.166-1.338 2.166-1.803s-.7-1.175-2.166-1.803a11.36 11.36 0 0 0 -.964-.36c-.222.7-.497 1.426-.825 2.163.328.737.603 1.462.825 2.163zm-1.45.388c-.081-.25-.169-.504-.264-.76a24.884 24.884 0 0 1 -.528.913c.27-.046.534-.097.791-.153z"/></svg>